<?xml version="1.0" encoding="UTF-8" standalone="no"?>
<svg
   width="700pt"
   height="700pt"
   version="1.1"
   viewBox="0 0 700 700"
   id="svg12"
   sodipodi:docname="logo_pharmacie.svg"
   inkscape:version="1.1.1 (3bf5ae0d25, 2021-09-20)"
   xmlns:inkscape="http://www.inkscape.org/namespaces/inkscape"
   xmlns:sodipodi="http://sodipodi.sourceforge.net/DTD/sodipodi-0.dtd"
   xmlns="http://www.w3.org/2000/svg"
   xmlns:svg="http://www.w3.org/2000/svg">
  <defs
     id="defs16" />
  <sodipodi:namedview
     id="namedview14"
     pagecolor="#505050"
     bordercolor="#eeeeee"
     borderopacity="1"
     inkscape:pageshadow="0"
     inkscape:pageopacity="0"
     inkscape:pagecheckerboard="0"
     inkscape:document-units="pt"
     showgrid="false"
     inkscape:zoom="0.85928571"
     inkscape:cx="217.62261"
     inkscape:cy="281.04738"
     inkscape:window-width="1920"
     inkscape:window-height="991"
     inkscape:window-x="-9"
     inkscape:window-y="-9"
     inkscape:window-maximized="1"
     inkscape:current-layer="svg12" />
  <g
     id="g10"
     inkscape:export-filename="C:\Users\Rhizlene\OneDrive\Bureau\Pharmacie_Sautheuz\public\image\g10.png"
     inkscape:export-xdpi="41.777157"
     inkscape:export-ydpi="41.777157">
    <path
       d="m419.96 514.34c0.33984-0.84766 0.62891-1.7148 0.83203-2.5977 0.83203-3.8672 1.0352-7.7539 0.45703-11.828-1.2539-8.1289-5.7344-15.254-10.844-20.77-5.1758-5.6523-11.098-10.215-17.273-14.391-4.6328-3.1211-9.4844-6.0078-14.426-8.8242-0.55859 6.7539-1.1523 13.184-1.7656 19.262 2.3945 1.2891 4.7695 2.5625 7.0273 3.9219 11.336 6.6875 21.109 14.867 22.977 23.383 0.45703 2.0703 0.49219 4.3789 0.27344 6.4141-0.20312 1.5117-0.89844 2.8164-1.9844 4.2578h-42.918c6.5-43.137 11.098-115.75 14.219-181.46-2.9531 0.55859-6.0586 1.2227-9.8438 2.1211-3.4805 0.73047-6.7031 1.6133-10.078 2.5273l-2.1562 0.59375c-2.5469 0.64453-4.8359 1.4102-7.1289 2.1875-1.4258 0.47656-2.8867 0.96875-4.3086 1.4102-1.2891 0.50781-2.5781 1-3.9023 1.4922-2.3945 0.89844-4.6328 1.7461-6.5664 2.7148-3.0195 1.3086-5.7031 2.6797-8.2461 4.0898 3.0898 60.871 7.4336 124.9 13.355 164.32h-47.023c-24.301 0-43.984 17.172-43.984 38.352h206.69c-0.003906-17.984-14.223-33.035-33.383-37.176z"
       id="path2"
       style="fill:#008000" />
    <path
       d="m375.95 75.652c15.816-8.0625 21.211-18.547 20.551-29.68 1.1211-0.085937 2.1875-0.21875 3.3789-0.27344 9.8438-0.45703 21.805 0.28906 34.535 5.582 1.5938 0.67969 3.207 1.3594 4.8711 2.0703 1.6289 0.79688 3.1562 1.8828 4.7695 2.8164 1.5742 1.0195 3.3555 1.7344 4.8828 3.0547 1.5625 1.2383 3.1562 2.4961 4.7695 3.8008 6.3633 4.957 11.965 11.914 17.461 20.688 2.0859 3.3945 4.1055 7.0781 6.0234 10.93h33.176c-4.0742-9.7734-8.8242-18.734-14.016-26.898-3.5117-5.3633-7.1602-10.402-11.27-15.035-2.0547-2.3086-4.0039-4.582-6.3633-6.6367-1.1211-1.0508-2.2227-2.0703-3.3086-3.1055-1.1875-0.86719-2.3242-1.7461-3.4805-2.6133-2.2891-1.6797-4.5469-3.3438-6.7188-4.9727-2.1562-1.6641-4.6992-2.7656-6.9922-4.0898-2.3594-1.2383-4.582-2.5781-6.8906-3.6133-2.3594-0.89844-4.6992-1.7812-6.957-2.6641-18.465-6.5859-34.738-6.2461-47.023-4.4648-3.5117 0.54297-6.7188 1.1875-9.707 1.918-8.9414-13-22.57-19.191-43.223-8.6562-23.793 12.148-47.887 41.898-39.184 58.969 8.707 17.078 46.957 15.008 70.715 2.875z"
       id="path4"
       style="fill:#008000"
       inkscape:export-filename="C:\Users\Rhizlene\OneDrive\Bureau\Pharmacie_Sautheuz\public\image\path4.png"
       inkscape:export-xdpi="41.777157"
       inkscape:export-ydpi="41.777157" />
    <path
       d="m476.3 236.68c-8.3828 12.574-19.684 23.586-33.211 32.277-13.492 8.7383-29.07 15.172-45.512 19.652-4.0391 1.3594-8.3164 2.0039-12.488 3.0391l-6.3281 1.4258-6.9219 1.4609c-4.6328 0.91797-9.2812 2.0195-13.883 3.2227-4.5977 1.0859-9.2148 2.5117-13.797 3.9023-4.5977 1.3086-9.1484 3.1562-13.695 4.6992-4.5156 1.9531-9.043 3.5469-13.457 5.8867-8.875 4.2266-17.598 9.4531-25.523 16.258-7.8242 6.7891-15.152 15.289-19.328 25.844-4.2422 10.453-5.1758 22.297-2.8867 32.719 2.1211 10.52 6.7031 19.734 12.203 27.676 5.5 7.9922 12.031 14.848 19.191 20.668 3.5117 2.9688 7.332 5.582 11.199 8.0078 1.918 1.1875 4.0039 2.3242 5.9375 3.3789l2.7812 1.4102c-0.66016-8.1289-1.2891-16.766-1.9531-25.793-1.3594-1.0703-2.7148-2.1875-4.0391-3.3945-5.5-4.8711-10.438-10.57-14.355-16.75-3.9375-6.1758-6.8203-12.879-7.8555-19.516-2.4258-13.32 3.3789-25.488 15.34-34.891 5.8047-4.7188 12.797-8.7383 20.348-12.047 3.6484-1.7969 7.7227-3.1055 11.574-4.6836 4.0742-1.2383 8.0273-2.7656 12.203-3.8359 4.1758-1.1211 8.2812-2.3086 12.559-3.1914 4.207-1 8.4844-1.918 12.828-2.6641l6.4297-1.2031 7.0273-1.4102c4.6992-1.0352 9.4531-1.6797 14.086-3.1055 18.668-4.6836 37.129-11.742 53.828-22.145 16.699-10.352 31.48-24.164 42.457-40.254 11.168-16.004 17.801-34.246 21.383-52.012 1.8828-9.4023 2.8164-18.734 3.0195-27.848-9.3164 8.1797-20.277 16.273-33.109 23.707-2.8125 13.816-7.957 27.34-16.051 39.508z"
       id="path6"
       style="fill:#008000" />
    <path
       d="m350 104.64h-213.41s35.195 102.67 182.63 115.43c0.59375 20.023 1.5273 47.855 2.8164 78.961 0.16797-0.050782 0.30469-0.11719 0.45703-0.1875 1.3242-0.55859 2.6797-1.1016 4.0039-1.6797l0.35547-0.15234 0.35547-0.13672c1.4922-0.49219 2.9883-1.0508 4.4805-1.5938 3.1211-1.1367 6.3633-2.3086 9.7422-3.2578l1.5625-0.47656c4.1055-1.2383 8.3477-2.5117 12.691-3.5312 5.2422-1.3906 9.8438-2.4609 14.188-3.3086l6.8203-1.4258 1.918-0.44141c0.96875-24.52 1.6953-46.293 2.1562-62.77 147.45-12.746 182.66-115.43 182.66-115.43z"
       id="path8"
       style="fill:#008000" />
  </g>
</svg>
